<svg xmlns="http://www.w3.org/2000/svg" width="1581.468" height="999.988" viewBox="0 0 1178.002 744.87">
  <defs>
    <style>
      .cls-1, .cls-2, .cls-3, .cls-4, .cls-5, .cls-6 {
        fill: none;
      }

      .cls-1, .cls-2, .cls-3, .cls-4, .cls-5 {
        stroke: #000;
      }

      .cls-1 {
        stroke-linecap: round;
        stroke-linejoin: round;
      }

      .cls-1, .cls-2, .cls-3 {
        stroke-width: 30px;
      }

      .cls-1, .cls-2, .cls-3, .cls-4, .cls-6, .cls-7, .cls-8 {
        fill-rule: evenodd;
      }

      .cls-3 {
        mix-blend-mode: multiply;
      }

      .cls-4 {
        stroke-width: 25px;
      }

      .cls-5 {
        stroke-width: 20px;
      }

      .cls-6 {
        stroke: #fff;
        stroke-width: 15px;
      }

      .cls-8 {
        fill: #fff;
      }
    </style>
  </defs>
  <path id="Line_1_copy_2" data-name="Line 1 copy 2" class="cls-1" d="M676.84,399.836l0.517,0.856L592.677,451.8l-0.517-.856ZM709.9,454.611l0.517,0.856-84.68,51.112-0.517-.855Zm33.062,54.776,0.517,0.856L658.8,561.355l-0.517-.856Z" transform="translate(-490.688 -279.25)"/>
  <path class="cls-2" d="M672.6,296.138L551.3,365.85s-60.532,34.939-42.141,123.521l77.489,128.38s32.641,35.464,57.545,47L781.36,748.939s39.966,18.308,58.91-14.539-8.432-54.105-14.05-58.078l-60.662-57.967s-6.439-8.885,1.66-13.773c42-25.354,241.742-143.652,241.742-143.652s38.46-28.258,12.68-60.2S971.378,383.2,971.378,383.2,876.55,433.752,852.6,448.207c-10.138,6.119-9.916-3.682-9.916-3.682,0.746-7.723,11.256-59.056-41.965-56.782-1.674.071-7.152,1.323-7.738-4.3-0.787-4.99-7.745-54.453-54.2-51.426-4.342.283-6.233,2.938-9.032-4.992C729.754,327.029,711.344,285,672.6,296.138Z" transform="translate(-490.688 -279.25)"/>
  <path class="cls-3" d="M1486.77,1007.27l121.3-69.506s60.53-34.834,42.14-123.152l-77.49-128s-32.64-35.358-57.55-46.863L1378.01,555.82s-39.97-18.254-58.91,14.5,8.43,53.943,14.05,57.9l60.66,57.793s6.44,8.859-1.66,13.733c-42.01,25.278-241.75,143.223-241.75,143.223s-38.45,28.173-12.67,60.018,50.26,17.484,50.26,17.484,94.83-50.4,118.77-64.817c6.29-3.783,5.71,1.462,5.71,1.462-0.12,2.693-13.67,51.1,46.18,58.821,1.66,0.214,7.15-1.32,7.73,4.283,0.76,4.711,5.76,47.793,54.2,51.273,1.66,0.119,8.07,1.07,9.03,4.977C1429.61,976.47,1448.02,1018.37,1486.77,1007.27Z" transform="translate(-490.688 -279.25)"/>
  <path class="cls-4" d="M1452.88,947.172l56.45-33.969a32.073,32.073,0,0,1,43.96,10.844l1.97,3.254a31.877,31.877,0,0,1-10.86,43.838l-56.45,33.971a32.078,32.078,0,0,1-43.96-10.846l-1.97-3.254A31.877,31.877,0,0,1,1452.88,947.172Z" transform="translate(-490.688 -279.25)"/>
  <path id="Rectangle_1_copy" data-name="Rectangle 1 copy" class="cls-4" d="M1392.51,899.552l56.45-33.969a32.087,32.087,0,0,1,43.97,10.844l1.97,3.254a31.88,31.88,0,0,1-10.87,43.838l-56.44,33.969a32.085,32.085,0,0,1-43.97-10.844l-1.97-3.254A31.877,31.877,0,0,1,1392.51,899.552Z" transform="translate(-490.688 -279.25)"/>
  <path id="Rectangle_1_copy_2" data-name="Rectangle 1 copy 2" class="cls-4" d="M1326.91,845.209l56.45-33.969a32.074,32.074,0,0,1,43.96,10.843l1.97,3.254a31.877,31.877,0,0,1-10.86,43.838l-56.45,33.969a32.073,32.073,0,0,1-43.96-10.844l-1.97-3.254A31.876,31.876,0,0,1,1326.91,845.209Z" transform="translate(-490.688 -279.25)"/>
  <circle id="OuterBorder" class="cls-5" cx="594.812" cy="384.25" r="130.5"/>
  <path id="WhiteBorder" class="cls-6" d="M1086.74,550.129c63.01,0,114.1,50.65,114.1,113.129s-51.09,113.13-114.1,113.13-114.1-50.65-114.1-113.13S1023.72,550.129,1086.74,550.129Z" transform="translate(-490.688 -279.25)"/>
  <path id="Flaps" class="cls-7" d="M1041.03,568.253S957.172,605.3,986.638,702.265c0,0,50.432,12.907,87.032-7.577C1073.67,694.688,1020.26,638.68,1041.03,568.253ZM991.349,710.265s40.441,82.838,132.241,52.38c0,0,12.93-48.421-7.59-85.011C1116,677.634,1061.9,731.029,991.349,710.265Zm141.071,48.6s84.44-37.39,54.34-132.053c0,0-50.39-12.91-86.95,7.58C1099.81,634.4,1153.17,688.419,1132.42,758.868Zm50-142.142s-36.07-84.278-133.11-52.246c0,0-12.92,48.3,7.58,84.788C1056.89,649.268,1111.94,596.017,1182.42,616.726Z" transform="translate(-490.688 -279.25)"/>
  <path id="Shine" class="cls-8" d="M1144.21,563.578c10.12,0,18.33,7.782,18.33,17.383s-8.21,17.383-18.33,17.383-18.32-7.783-18.32-17.383S1134.09,563.578,1144.21,563.578Z" transform="translate(-490.688 -279.25)"/>
</svg>
